<svg xmlns="http://www.w3.org/2000/svg" xmlns:cc="http://web.resource.org/cc/" xmlns:svg="http://www.w3.org/2000/svg" id="svg2" width="120" height="140" version="1.0"><metadata id="metadata7"/><g id="layer1"><g id="g3279" transform="translate(-299.005, -503.076)"><g style="fill:#97c024;fill-opacity:1" id="g3228"><path style="opacity:.977778;fill:#97c024;fill-opacity:1;stroke:none;stroke-width:.9;stroke-linejoin:miter;stroke-miterlimit:4;stroke-dasharray:none;stroke-opacity:.401316" id="path2170" d="M 356.78125,519.875 C 338.24982,519.875 323.21876,532.38118 323.21875,547.81717 C 323.21875,548.86547 323.27113,549.91011 323.40625,550.92857 L 390.15625,550.92857 C 390.29137,549.91011 390.34375,548.86547 390.34375,547.81717 C 390.34375,532.38118 375.31268,519.87502 356.78125,519.875 z"/><path style="opacity:.977778;fill:#97c024;fill-opacity:1;stroke:none;stroke-width:.9;stroke-linejoin:miter;stroke-miterlimit:4;stroke-dasharray:none;stroke-opacity:.401316" id="rect3158" d="M 322.96875,553.0625 L 322.96875,603.32078 C 322.96875,607.41959 327.39653,610.71877 332.89448,610.71875 L 380.23498,610.71875 C 385.73292,610.71875 390.1607,607.41959 390.16071,603.32078 L 390.16071,553.0625 L 322.96875,553.0625 z"/><rect style="opacity:.977778;fill:#97c024;fill-opacity:1;stroke:none;stroke-width:.9;stroke-linejoin:miter;stroke-miterlimit:4;stroke-dasharray:none;stroke-opacity:.401316" id="rect3162" width="15.357" height="37.857" x="336.763" y="597.048" rx="9.738" ry="7.611"/><rect id="rect3164" width="15.357" height="37.857" x="361.773" y="597.048" rx="9.738" ry="7.611" style="opacity:.977778;fill:#97c024;fill-opacity:1;stroke:none;stroke-width:.9;stroke-linejoin:miter;stroke-miterlimit:4;stroke-dasharray:none;stroke-opacity:.401316"/><rect id="rect3169" width="15.357" height="47.143" x="393.036" y="551.791" rx="9.738" ry="7.692" style="opacity:.977778;fill:#97c024;fill-opacity:1;stroke:none;stroke-width:.9;stroke-linejoin:miter;stroke-miterlimit:4;stroke-dasharray:none;stroke-opacity:.401316"/><rect style="opacity:.977778;fill:#97c024;fill-opacity:1;stroke:none;stroke-width:.9;stroke-linejoin:miter;stroke-miterlimit:4;stroke-dasharray:none;stroke-opacity:.401316" id="rect3171" width="15.357" height="47.143" x="305.036" y="551.791" rx="9.738" ry="7.692"/><rect style="opacity:.977778;fill:#97c024;fill-opacity:1;stroke:none;stroke-width:.9;stroke-linejoin:miter;stroke-miterlimit:4;stroke-dasharray:none;stroke-opacity:.401316" id="rect3191" width="14.824" height="2.623" x="613.599" y="-68.509" rx="1.482" ry="1.264" transform="matrix(0.453399, 0.891308, -0.84966, 0.527331, 0, 0)"/><rect id="rect3193" width="14.516" height="2.604" x="242.796" y="572.204" rx="1.451" ry="1.255" transform="matrix(-0.463044, 0.886335, 0.855858, 0.517211, 0, 0)" style="opacity:.977778;fill:#97c024;fill-opacity:1;stroke:none;stroke-width:.9;stroke-linejoin:miter;stroke-miterlimit:4;stroke-dasharray:none;stroke-opacity:.401316"/><path style="opacity:.977778;fill:#97c024;fill-opacity:1;stroke:none;stroke-width:.9;stroke-linejoin:miter;stroke-miterlimit:4;stroke-dasharray:none;stroke-opacity:.401316" id="path3196" d="M 345.00001 536.11218 A 3.0357144 3.0357144 0 1 1 338.92858,536.11218 A 3.0357144 3.0357144 0 1 1 345.00001 536.11218 z" transform="translate(-0.571429, -0.714286)"/><path id="path3198" d="M 345.00001 536.11218 A 3.0357144 3.0357144 0 1 1 338.92858,536.11218 A 3.0357144 3.0357144 0 1 1 345.00001 536.11218 z" transform="translate(30.3214, -0.714286)" style="opacity:.977778;fill:#97c024;fill-opacity:1;stroke:none;stroke-width:.9;stroke-linejoin:miter;stroke-miterlimit:4;stroke-dasharray:none;stroke-opacity:.401316"/></g><path style="opacity:.977778;fill:#fff;fill-opacity:1;stroke:none;stroke-width:.9;stroke-linejoin:miter;stroke-miterlimit:4;stroke-dasharray:none;stroke-opacity:.401316" id="path3224" d="M 345.00001 536.11218 A 3.0357144 3.0357144 0 1 1 338.92858,536.11218 A 3.0357144 3.0357144 0 1 1 345.00001 536.11218 z" transform="translate(-0.57143, -0.714286)"/><path id="path3226" d="M 345.00001 536.11218 A 3.0357144 3.0357144 0 1 1 338.92858,536.11218 A 3.0357144 3.0357144 0 1 1 345.00001 536.11218 z" transform="translate(30.3214, -0.714286)" style="opacity:.977778;fill:#fff;fill-opacity:1;stroke:none;stroke-width:.9;stroke-linejoin:miter;stroke-miterlimit:4;stroke-dasharray:none;stroke-opacity:.401316"/></g></g></svg>