<svg xmlns="http://www.w3.org/2000/svg" xmlns:svg="http://www.w3.org/2000/svg" xmlns:xlink="http://www.w3.org/1999/xlink" id="svg2" width="64" height="64" version="1.1"><metadata id="metadata10"/><defs id="defs4"><linearGradient id="linearGradient3671" x1="6.819" x2="45.06" y1="988.362" y2="1024.006" gradientUnits="userSpaceOnUse" xlink:href="#linearGradient3665"/><linearGradient id="linearGradient3665"><stop id="stop3667" offset="0" style="stop-color:#fff;stop-opacity:1"/><stop id="stop3669" offset="1" style="stop-color:#fff;stop-opacity:0"/></linearGradient><linearGradient id="linearGradient3725" x1="6.819" x2="45.06" y1="988.362" y2="1024.006" gradientTransform="translate(-3.8559e-4,-988.36218)" gradientUnits="userSpaceOnUse" xlink:href="#linearGradient3665"/><radialGradient id="radialGradient2883" cx="220.5" cy="99.5" r="84.5" fx="220.5" fy="99.5" gradientUnits="userSpaceOnUse" xlink:href="#linearGradient3851"/><radialGradient id="radialGradient2881" cx="220.5" cy="99.5" r="87.5" fx="220.5" fy="99.5" gradientTransform="matrix(0.87402472,0,0,0.87172596,27.777549,12.763266)" gradientUnits="userSpaceOnUse" xlink:href="#linearGradient3675"/><radialGradient id="radialGradient3683" cx="220.5" cy="99.5" r="87.5" fx="220.5" fy="99.5" gradientTransform="matrix(0.87402472,0,0,0.87172596,27.777549,12.763266)" gradientUnits="userSpaceOnUse" xlink:href="#linearGradient3675"/><radialGradient id="radialGradient3948" cx="144.496" cy="86.384" r="220.762" fx="144.496" fy="86.384" gradientTransform="matrix(0.64284754,0.00515087,-0.00482929,0.74489324,52.024217,21.29285)" gradientUnits="userSpaceOnUse" xlink:href="#linearGradient3942"/><radialGradient id="radialGradient3859" cx="220.5" cy="99.5" r="84.5" fx="220.5" fy="99.5" gradientUnits="userSpaceOnUse" xlink:href="#linearGradient3851"/><linearGradient id="linearGradient3835" x1="248.228" x2="248.228" y1="845.065" y2="789.4" gradientTransform="matrix(1,0,0,1.1654092,0,-134.82366)" gradientUnits="userSpaceOnUse" xlink:href="#linearGradient3829"/><linearGradient id="linearGradient3829"><stop id="stop3831" offset="0" style="stop-color:#000;stop-opacity:0"/><stop style="stop-color:#000;stop-opacity:.86033517" id="stop3837" offset=".081"/><stop id="stop3833" offset="1" style="stop-color:#000;stop-opacity:0"/></linearGradient><linearGradient id="linearGradient3851"><stop style="stop-color:#6ac335;stop-opacity:0" id="stop3865" offset="0"/><stop style="stop-color:#939393;stop-opacity:1" id="stop3863" offset=".901"/><stop id="stop3869" offset=".929" style="stop-color:#6ac335;stop-opacity:1"/><stop id="stop3855" offset="1" style="stop-color:#fff;stop-opacity:0"/></linearGradient><linearGradient id="linearGradient3942"><stop id="stop3944" offset="0" style="stop-color:#6ac335;stop-opacity:1"/><stop style="stop-color:#6ac335;stop-opacity:1" id="stop3630" offset=".387"/><stop id="stop3946" offset="1" style="stop-color:#6ac335;stop-opacity:0"/></linearGradient><linearGradient id="linearGradient3675"><stop id="stop3677" offset="0" style="stop-color:#6ac335;stop-opacity:1"/><stop style="stop-color:#6ac335;stop-opacity:.37988827" id="stop3693" offset=".674"/><stop id="stop3679" offset="1" style="stop-color:#6ac335;stop-opacity:0"/></linearGradient><radialGradient id="radialGradient4598" cx="220.5" cy="99.5" r="87.5" fx="220.5" fy="99.5" gradientTransform="matrix(0.87402472,0,0,0.87172596,27.777549,12.763266)" gradientUnits="userSpaceOnUse" xlink:href="#linearGradient3675"/><radialGradient id="radialGradient4600" cx="220.5" cy="99.5" r="84.5" fx="220.5" fy="99.5" gradientUnits="userSpaceOnUse" xlink:href="#linearGradient3851"/></defs><rect style="fill:#333;fill-opacity:1;stroke:none" id="rect2886" width="64" height="64" x="0" y="0" ry="5.953"/><rect id="rect2891" width="61" height="61" x="1.5" y="1.5" ry="5.674" style="fill:none;stroke:#999;stroke-width:1;stroke-miterlimit:4;stroke-opacity:1;stroke-dasharray:none"/><path style="opacity:.2;fill:url(#linearGradient3725);fill-opacity:1;stroke:none" id="rect2888" d="M 5.9531032,0 58.046125,0 c 3.298233,0 5.953489,2.65526 5.953489,5.95349 L 63.242,31.53002 c -43.679517,-11.6393 -61.829952,13.5258 -64,0 L -3.8559e-4,5.95349 C -3.8559e-4,2.65526 2.6548704,0 5.9531032,0 z"/><g id="layer1" transform="translate(-133.48929,-945.74351)"><g id="g4584" transform="matrix(0.52671552,0,0,0.52671552,132.20784,456.72946)"><g id="g2865" transform="matrix(0.6396561,0,0,0.6396561,-89.517458,417.55727)"><path style="fill:url(#radialGradient4598);fill-opacity:1;stroke:none" id="path3632" d="M 301,99.5 C 301,143.95892 264.95892,180 220.5,180 176.04108,180 140,143.95892 140,99.5 140,55.041078 176.04108,19 220.5,19 264.95892,19 301,55.041078 301,99.5 z" transform="matrix(1.2429039,0,0,1.2429039,-34.060319,768.69324)"/><path id="path3843" d="M 301,99.5 C 301,143.95892 264.95892,180 220.5,180 176.04108,180 140,143.95892 140,99.5 140,55.041078 176.04108,19 220.5,19 264.95892,19 301,55.041078 301,99.5 z" transform="translate(19.5,792.86218)" style="fill:#fff;fill-opacity:1;stroke:url(#radialGradient4600);stroke-width:14;stroke-miterlimit:4;stroke-dasharray:none"/><g id="g2870" transform="matrix(1.0565786,0,0,1.0565786,-13.578873,-56.488633)"><g style="font-size:144px;font-style:normal;font-variant:normal;font-weight:400;font-stretch:normal;text-align:start;line-height:125%;writing-mode:lr-tb;text-anchor:start;fill:#6ac335;fill-opacity:1;stroke:none;font-family:DroidLogo;-inkscape-font-specification:DroidLogo" id="text4112" transform="matrix(0.91241793,0,0,0.72820562,78.837265,386.96548)"><g id="g4580" transform="matrix(1.179027,0,0,1.179027,-31.613342,-124.25066)"><path style="font-size:144px;font-style:normal;font-variant:normal;font-weight:400;font-stretch:normal;text-align:start;line-height:100%;writing-mode:lr-tb;text-anchor:start;fill:#6c6a69;fill-opacity:1;stroke:none;font-family:DroidLogo;-inkscape-font-specification:DroidLogo" id="path4106" d="m 134.45053,668.28924 c 1.24314,5.06051 -3.45844,16.07774 5.0625,13.8125 8.36991,0.67232 17.33545,-1.24662 25.40625,0.75 5.88112,4.70736 2.53275,14.14546 3.5,20.71875 0,6.4375 0,12.875 0,19.3125 -7.60943,-0.97019 -16.28901,1.97557 -23.28125,-1.5625 -4.39171,-3.9238 -4.32513,-12.40661 0.0312,-16.25 5.79911,-3.02843 12.89224,-0.58972 19.15625,-1.375 -1.44199,-4.80801 3.21483,-15.71483 -3,-15.75 -10.01442,-0.38046 -23.28208,-1.14906 -28.84375,9.25 -4.84738,9.86772 -4.93963,22.53859 0.15625,32.3125 5.63668,10.04725 18.72335,9.61918 28.65625,9.125 6.75,0 13.5,0 20.25,0 -0.25038,-16.72855 0.3583,-33.61516 0,-50.21875 -0.52811,-9.15326 -4.96018,-19.93694 -15.0625,-21.5625 -10.57435,-1.24011 -21.37736,-0.17226 -32.03125,-0.5625 l 0,1 0,1 z"/><path id="path2876" d="m 195.625,666.84776 c -10.98852,0.0926 -21.90394,7.29117 -24,18.53125 -5.55572,16.30962 -3.70998,36.98476 9.46875,49 9.93177,6.81219 22.8497,3.92719 34.125,4.59375 -1.44199,-4.80801 3.21483,-15.71483 -3,-15.75 -9.28171,-0.43086 -22.45146,2.58153 -27.84375,-7.46875 -4.13591,-9.26205 -4.16164,-21.59599 2.625,-29.5625 5.93426,-5.06785 16.08675,-4.76695 22.125,-0.25 1.83801,2.56633 2.16019,8.01947 -0.59375,9.875 -6.5912,0.29059 -13.259,-0.0962 -19.875,-0.0625 1.31399,4.66266 -3.09518,15.05881 2.99999,14.93337 9.72798,-0.32654 22.82366,2.33246 29.00001,-7.46462 9.27917,-13.0104 -0.13273,-32.90056 -15.4375,-35.59375 -3.14129,-0.7027 -6.37553,-0.92115 -9.59375,-0.78125 z"/></g></g></g><path style="fill:none;stroke:gray;stroke-width:2;stroke-miterlimit:4;stroke-opacity:1;stroke-dasharray:none" id="path3871" d="M 301,99.5 C 301,143.95892 264.95892,180 220.5,180 176.04108,180 140,143.95892 140,99.5 140,55.041078 176.04108,19 220.5,19 264.95892,19 301,55.041078 301,99.5 z" transform="matrix(0.91757651,0,0,0.91757651,37.67438,801.06332)"/><path id="path2867" d="M 301,99.5 C 300.18263,128.79144 300.27147,85.592043 272.97699,85.592043 228.51807,85.592043 140,143.95892 140,99.5 140,55.041078 176.04108,19 220.5,19 264.95892,19 301,55.041078 301,99.5 z" style="opacity:.5;fill:#fff;stroke:none" transform="matrix(0.91757651,0,0,0.91757651,37.67438,801.06332)"/></g></g></g></svg>